<svg xmlns="http://www.w3.org/2000/svg" version="1.1" xmlns:xlink="http://www.w3.org/1999/xlink" xmlns:svgjs="http://svgjs.com/svgjs" width="512" height="512" x="0" y="0" viewBox="0 0 480 480" style="enable-background:new 0 0 512 512" xml:space="preserve" class=""><g><path xmlns="http://www.w3.org/2000/svg" d="m338.7 255.08c-24.25 43.42-36.11 92.21-34.7 141.92h9c13.25 0 24 10.75 24 24v27c0 13.25-10.75 24-24 24h-146c-13.25 0-24-10.75-24-24v-27c0-13.25 10.75-24 24-24h9c1.42-49.71-10.45-98.5-34.7-141.92-3.13-5.61-2.58-12.55 1.38-17.62l75.02-95.94c4.68-5.99 14.3-2.67 14.3 4.94 0 70.61-.02 95.59 0 104.54.01 2.95-1.61 5.66-4.22 7.05-8.2 4.37-13.78 13.01-13.78 22.95 0 14.91 12.54 26.88 27.65 25.95 12.68-.78 23.12-10.91 24.24-23.57.97-10.88-4.78-20.54-13.57-25.28-2.63-1.42-4.33-4.11-4.32-7.11.02-8.95 0-33.93 0-104.53 0-7.61 9.62-10.93 14.3-4.94l75.02 95.94c3.96 5.07 4.51 12.01 1.38 17.62z" fill="#42434d" data-original="#42434d" class=""></path><path xmlns="http://www.w3.org/2000/svg" d="m337 421v27c0 13.25-10.75 24-24 24h-146c-13.25 0-24-10.75-24-24v-27c0-13.25 10.75-24 24-24h146c13.25 0 24 10.75 24 24z" fill="#d6f4fc" data-original="#d6f4fc"></path><path xmlns="http://www.w3.org/2000/svg" d="m206.97 223.892c-17.591 22.5-21.784 52.714-11.027 79.172 12.14 29.861 18.893 61.588 19.998 93.936h-39.941c1.42-49.71-10.45-98.5-34.7-141.92-3.13-5.61-2.58-12.55 1.38-17.62l75.02-95.94c4.68-5.99 14.3-2.67 14.3 4.94 0 9.733 0 18.599-.002 26.676-.002 12.153-4.07 23.949-11.555 33.523z" fill="#4d4e59" data-original="#4d4e59" class=""></path><g xmlns="http://www.w3.org/2000/svg" fill="#fe4f60"><circle cx="429" cy="44" r="16" fill="#fe4f60" data-original="#fe4f60"></circle><circle cx="51" cy="44" r="16" fill="#fe4f60" data-original="#fe4f60"></circle><path d="m472 265v22c0 8.84-7.16 16-16 16h-22c-8.84 0-16-7.16-16-16v-22c0-8.84 7.16-16 16-16h22c8.84 0 16 7.16 16 16z" fill="#fe4f60" data-original="#fe4f60"></path><path d="m46 249c8.84 0 16 7.16 16 16v22c0 8.84-7.16 16-16 16h-22c-8.84 0-16-7.16-16-16v-22c0-8.84 7.16-16 16-16z" fill="#fe4f60" data-original="#fe4f60"></path><path d="m276 64c0 8.84-7.16 16-16 16h-40c-8.84 0-16-7.16-16-16 0-15.681 0-26.615 0-40 0-8.84 7.16-16 16-16h40c8.84 0 16 7.16 16 16z" fill="#fe4f60" data-original="#fe4f60"></path></g><path xmlns="http://www.w3.org/2000/svg" d="m316 427h-119c-13.255 0-24 10.745-24 24 0 18.64-30 21.889-30-3v-27c0-13.255 10.745-24 24-24h146c24.891 0 21.637 30 3 30z" fill="#e8f8fc" data-original="#e8f8fc"></path><path xmlns="http://www.w3.org/2000/svg" d="m284.309 156.676c-2.723-3.481-7.75-4.095-11.23-1.374s-4.096 7.75-1.375 11.23l62.618 80.079c-26.546 45.54-39.843 97.421-38.319 150.618.087 3.06 1.957 5.918 4.913 7.153 1.844.772 2.166.618 12.084.618 8.822 0 16 7.177 16 16v27c0 8.823-7.178 16-16 16h-146c-8.822 0-16-7.177-16-16v-27c0-8.823 7.178-16 16-16h87c4.418 0 8-3.582 8-8s-3.582-8-8-8h-69.9c.002-50.26-13.2-99.117-38.423-142.389l86.323-110.393v111.742c-14.899 3.608-26 17.049-26 33.04 0 18.748 15.252 34 34 34s34-15.252 34-34c0-15.992-11.101-29.432-26-33.04v-134.96c0-6.613-7.635-10.37-12.873-6.334-1.14.88 5.63-7.621-105.429 134.406-2.052 2.625-2.263 6.247-.529 9.092 25.018 41.048 38.933 88.662 38.932 138.836-20.164 0-33.101 15.398-33.101 32v27c0 17.645 14.355 32 32 32h146c17.645 0 32-14.355 32-32v-27c0-16.525-12.846-32-33.101-32-.001-50.171 13.912-97.785 38.932-138.836 1.734-2.845 1.523-6.467-.529-9.092zm-26.309 124.324c0 9.925-8.075 18-18 18s-18-8.075-18-18 8.075-18 18-18 18 8.075 18 18zm96-229h52.376c3.302 9.311 12.195 16 22.624 16 13.234 0 24-10.766 24-24s-10.766-24-24-24c-10.429 0-19.322 6.689-22.624 16h-52.376c-4.418 0-8 3.582-8 8s3.582 8 8 8zm75-16c4.411 0 8 3.589 8 8s-3.589 8-8 8-8-3.589-8-8 3.589-8 8-8zm-288.942 43.196c3.806-2.245 5.071-7.149 2.826-10.955-2.245-3.805-7.15-5.07-10.955-2.826-60.735 35.827-101.971 100.82-104.773 175.585h-3.156c-13.234 0-24 10.766-24 24v22c0 13.234 10.766 24 24 24h22c13.234 0 24-10.766 24-24v-22c0-13.234-10.766-24-24-24h-2.816c2.734-66.39 39.313-127.849 96.874-161.804zm-86.058 185.804v22c0 4.411-3.589 8-8 8h-22c-4.411 0-8-3.589-8-8v-22c0-4.411 3.589-8 8-8h22c4.411 0 8 3.589 8 8zm402-24h-3.162c-3.738-99.255-75.002-180.687-168.838-200.434v-16.566c0-13.234-10.766-24-24-24h-40c-13.234 0-24 10.766-24 24v12h-122.376c-3.302-9.311-12.195-16-22.624-16-13.234 0-24 10.766-24 24s10.766 24 24 24c10.429 0 19.322-6.689 22.624-16h122.376v12c0 13.234 10.766 24 24 24h40c13.234 0 24-10.766 24-24v-7.068c86.63 19.683 149.277 95.018 152.832 184.068h-2.832c-13.234 0-24 10.766-24 24v22c0 13.234 10.766 24 24 24h22c13.234 0 24-10.766 24-24v-22c0-13.234-10.766-24-24-24zm-405-189c-4.411 0-8-3.589-8-8s3.589-8 8-8 8 3.589 8 8-3.589 8-8 8zm217 12c0 4.411-3.589 8-8 8h-40c-4.411 0-8-3.589-8-8v-40c0-4.411 3.589-8 8-8h40c4.411 0 8 3.589 8 8zm196 223c0 4.411-3.589 8-8 8h-22c-4.411 0-8-3.589-8-8v-22c0-4.411 3.589-8 8-8h22c4.411 0 8 3.589 8 8z" fill="#000000" data-original="#000000" class=""></path></g></svg>