<svg xmlns="http://www.w3.org/2000/svg" version="1.1" xmlns:xlink="http://www.w3.org/1999/xlink" xmlns:svgjs="http://svgjs.com/svgjs" width="512" height="512" x="0" y="0" viewBox="0 0 512 512" style="enable-background:new 0 0 512 512" xml:space="preserve" class=""><g><g xmlns="http://www.w3.org/2000/svg" id="_x30_3_Cricket"><g><g fill="#8da8ff"><path d="m136.458 83.23c9.016 0 16.324 7.309 16.324 16.324v355.981c0 9.016-7.309 45.81-16.324 45.81-9.016 0-16.324-36.794-16.324-45.81v-355.981c0-9.015 7.309-16.324 16.324-16.324z" fill="#8da8ff" data-original="#8da8ff" class=""></path><path d="m228.339 83.23c9.016 0 16.324 7.309 16.324 16.324v355.981c0 9.016-7.309 45.81-16.324 45.81-9.016 0-16.324-36.794-16.324-45.81v-355.981c-.001-9.015 7.308-16.324 16.324-16.324z" fill="#8da8ff" data-original="#8da8ff" class=""></path><path d="m320.218 83.23c9.016 0 16.324 7.309 16.324 16.324v355.981c0 9.016-7.309 45.81-16.324 45.81-9.016 0-16.324-36.794-16.324-45.81v-355.981c0-9.015 7.308-16.324 16.324-16.324z" fill="#8da8ff" data-original="#8da8ff" class=""></path></g><path d="m188.904 92.999h-13.012c-5.395 0-9.768-4.373-9.768-9.768s4.373-9.768 9.768-9.768h13.012c5.395 0 9.768 4.373 9.768 9.768 0 5.394-4.373 9.768-9.768 9.768z" fill="#ffffff" data-original="#ffffff" class=""></path><path d="m280.784 92.999h-13.012c-5.395 0-9.768-4.373-9.768-9.768s4.373-9.768 9.768-9.768h13.012c5.395 0 9.768 4.373 9.768 9.768 0 5.394-4.373 9.768-9.768 9.768z" fill="#ffffff" data-original="#ffffff" class=""></path><path d="m409.946 156.679c5.518 2.442 9.64 7.242 11.221 13.066l79.635 293.435c2.423 8.928-1.623 18.324-9.694 22.839-23.477 13.176-48.714 20.025-75.631 20.526-9.244.185-17.487-5.877-19.909-14.805l-79.637-293.442c-1.58-5.82-.452-12.043 3.07-16.937l24.11-33.51 29.063-7.887z" fill="#fff9b0" data-original="#fff9b0" class=""></path><path d="m325.475 23.942h32.396v122.097h-32.396z" fill="#484a5b" transform="matrix(.965 -.262 .262 .965 -10.333 92.45)" data-original="#484a5b" class=""></path><path d="m347.807 11.519c-1.193-4.396-5.724-6.993-10.119-5.799l-32.67 8.866c-4.396 1.194-6.993 5.724-5.799 10.119 1.192 4.396 5.724 6.993 10.119 5.799l32.67-8.866c4.396-1.192 6.993-5.723 5.799-10.119z" fill="#484a5b" data-original="#484a5b" class=""></path><path d="m111.046 406.073c19.538 19.538 22.455 49.404 8.752 72.015-2.419 4.031-5.337 7.792-8.792 11.247-3.531 3.531-7.446 6.527-11.555 9.02-22.611 13.397-52.246 10.404-71.669-9.02-19.425-19.425-22.457-49.098-9.059-71.709 2.496-4.108 5.489-8.023 9.021-11.555 3.455-3.455 7.217-6.373 11.248-8.791 22.648-13.665 52.514-10.747 72.054 8.793z" fill="#ff617a" data-original="#ff617a"></path><path d="m38.991 397.281 80.806 80.806c-2.419 4.031-5.337 7.792-8.792 11.247-3.531 3.531-7.446 6.527-11.555 9.02l-80.729-80.728c2.496-4.108 5.489-8.023 9.021-11.555 3.456-3.454 7.218-6.372 11.249-8.79z" fill="#ffffff" data-original="#ffffff" class=""></path><g fill="#313346"><path d="m506.042 461.758-79.637-293.436c-2.02-7.435-7.218-13.489-14.261-16.607l-34.042-15.064-30.358-111.864c4.529-3.228 6.843-9.017 5.305-14.689 0 0 0 0-.003 0-1.959-7.239-9.425-11.608-16.779-9.617l-32.668 8.864c-7.29 1.977-11.6 9.482-9.617 16.781 1.54 5.68 6.474 9.511 12.021 9.999l11.309 41.669h-22.379c-2.196-5.695-7.689-9.763-14.148-9.763h-13.013c-6.458 0-11.953 4.067-14.148 9.763-.757 0-52.549 0-50.569 0-2.196-5.695-7.69-9.763-14.151-9.763h-13.01c-6.46 0-11.955 4.067-14.152 9.763h-25.273c-.108 0-.197.056-.304.061-11.865.161-21.475 9.813-21.475 21.686v302.515c-25.388-25.185-65.926-24.7-90.786.178-25.344 25.344-24.899 66 .039 90.939 25.156 25.156 65.865 25.048 90.9 0 2.111-2.111 4.021-4.393 5.806-6.759 4.433 13.962 9.36 20.336 15.808 20.336 17.057 0 21.77-50.682 21.77-51.194v-356.014c0-3.986-1.159-7.676-3.045-10.889h6.556c2.193 5.699 7.689 9.773 14.155 9.773h13.01c6.465 0 11.961-4.074 14.155-9.773h6.568c-1.882 3.218-3.039 6.911-3.039 10.9v355.983c0 .511 4.708 51.239 21.752 51.239s21.752-50.728 21.752-51.239v-355.983c0-3.99-1.156-7.682-3.039-10.9h6.568c2.193 5.699 7.689 9.773 14.152 9.773h13.013c6.462 0 11.959-4.074 14.152-9.773h6.562c-1.887 3.214-3.045 6.904-3.045 10.889v356.015c0 5.023 1.866 16.781 4.994 27.785 4.684 16.19 9.858 23.409 16.776 23.409 17.055 0 21.768-50.682 21.768-51.194v-140.51l48.337 178.114c3.025 11.144 13.15 18.818 24.732 18.818.173 0 .347-.003.52-.005 27.711-.517 54.017-7.655 78.181-21.22 10.297-5.76 15.349-17.686 12.28-28.996zm-160.195-320.277-29.135-107.352 20.785-5.641 29.136 107.355zm-39.407-121.655 32.67-8.867c1.513-.407 3.05.486 3.46 1.98.405 1.502-.485 3.054-1.983 3.462-1.839.499-33.222 9.017-32.671 8.867-1.515.41-3.051-.493-3.46-1.983-.405-1.508.482-3.053 1.984-3.459zm-199.234 390.086c15.734 15.734 19.886 39.144 11.175 59.047l-70.272-70.27c20.257-8.833 43.583-4.292 59.097 11.223zm-75.585 75.585c-15.605-15.605-19.843-38.895-11.42-58.705l70.082 70.082c-19.836 8.426-43.086 4.196-58.662-11.377zm68.472 5.837-74.347-74.347c1.802-2.537 3.712-4.953 5.834-7.075 2.084-2.085 4.388-3.914 6.779-5.619l74.43 74.428c-1.703 2.386-3.533 4.686-5.622 6.778-2.132 2.13-4.548 4.041-7.074 5.835zm47.278-35.777c0 9.434-6.158 34.629-10.857 39.798-1.14-1.365-3.55-5.164-6.407-15.038-.673-2.312-1.228-4.709-1.763-7.06 8.096-18.515 6.92-39.536-2.796-56.882v-316.833c0-5.988 4.893-10.857 10.91-10.857s10.913 4.869 10.913 10.857zm41.532-367.988h-13.01c-2.393 0-4.342-1.946-4.342-4.339s1.948-4.339 4.342-4.339h13.01c2.393 0 4.342 1.946 4.342 4.339s-1.949 4.339-4.342 4.339zm50.33 367.967c0 9.479-6.195 34.852-10.895 39.899-4.7-5.047-10.895-30.42-10.895-39.899v-355.983c0-6.007 4.888-10.895 10.895-10.895s10.895 4.888 10.895 10.895zm41.551-367.967h-13.013c-2.381 0-4.311-1.927-4.332-4.302 0-.015.008-.028.008-.042 0-.013-.007-.024-.007-.037.025-2.373 1.952-4.297 4.331-4.297h13.013c2.379 0 4.306 1.924 4.331 4.297 0 .013-.007.024-.007.037 0 .014.008.027.008.042-.021 2.375-1.952 4.302-4.332 4.302zm50.348 367.988c0 9.434-6.158 34.629-10.857 39.798-1.137-1.363-3.544-5.155-6.393-15.006-2.945-10.356-4.573-21.235-4.573-24.793v-356.014c0-5.988 4.896-10.857 10.913-10.857.017 0 .031.006.048.006l10.863 40.031v26.483l-16.535 22.985c-4.498 6.251-5.922 14.099-3.905 21.53l20.44 75.319v180.519h-.001zm157.32 25.727c-22.59 12.679-47.178 19.353-73.084 19.833-6.908.137-12.801-4.305-14.561-10.796l-79.636-293.442c-1.158-4.263-.342-8.761 2.237-12.347l22.985-31.947 25.344-6.876 36.013 15.936c4.039 1.787 7.019 5.259 8.178 9.521l79.634 293.433c1.762 6.497-1.159 13.355-7.11 16.685z" fill="#313346" data-original="#313346" class=""></path><path d="m363.092 200.025c-.801-2.889-3.795-4.596-6.677-3.793-2.889.798-4.588 3.785-3.793 6.677 67.89 249.563 26.213 96.543 58.301 214.908 5.882 21.596 5.008 44.14-2.532 65.201-1.01 2.823.459 5.929 3.282 6.94 2.822 1.015 5.931-.459 6.94-3.282 8.292-23.162 9.257-47.96 2.789-71.705-38.405-141.679-11.685-45.497-58.31-214.946z" fill="#313346" data-original="#313346" class=""></path><path d="m450.175 407.152c-.176-.647-57.725-212.76-58.306-214.923-.784-2.892-3.756-4.586-6.661-3.82-2.894.787-4.605 3.77-3.82 6.661 53.795 198.295-30.143-111.095 58.308 214.926 6.459 23.791 19.833 44.694 38.67 60.448 2.306 1.933 5.733 1.607 7.648-.681 1.924-2.301 1.619-5.723-.681-7.648-17.125-14.322-29.285-33.327-35.158-54.963z" fill="#313346" data-original="#313346" class=""></path></g></g></g></g></svg>